<svg width="240" height="240" viewBox="0 0 240 240" fill="none" xmlns="http://www.w3.org/2000/svg">
<path d="M20 120C20 72.8595 20 49.2893 34.6447 34.6447C49.2893 20 72.8595 20 120 20C167.14 20 190.711 20 205.355 34.6447C220 49.2893 220 72.8595 220 120C220 167.14 220 190.711 205.355 205.355C190.711 220 167.14 220 120 220C72.8595 220 49.2893 220 34.6447 205.355C20 190.711 20 167.14 20 120Z" stroke="#1C274C" stroke-width="15"/>
<path d="M150 120L120 120M120 120L90 120M120 120L120 90M120 120L120 150" stroke="#1C274C" stroke-width="15" stroke-linecap="round"/>
</svg>
