<svg width="24" height="24" viewBox="0 0 24 24" fill="none" xmlns="http://www.w3.org/2000/svg">
<path d="M3.74166 20.5545C4.94128 22 7.17399 22 11.6394 22H12.3606C16.826 22 19.0587 22 20.2583 20.5545M3.74166 20.5545C2.54204 19.1091 2.9535 16.9146 3.77642 12.5257C4.36164 9.40452 4.65425 7.84393 5.76515 6.92196M3.74166 20.5545C3.74166 20.5545 3.74166 20.5545 3.74166 20.5545ZM20.2583 20.5545C21.4579 19.1091 21.0465 16.9146 20.2236 12.5257C19.6383 9.40452 19.3457 7.84393 18.2348 6.92196M20.2583 20.5545C20.2583 20.5545 20.2583 20.5545 20.2583 20.5545ZM18.2348 6.92196C17.1239 6 15.5361 6 12.3606 6H11.6394C8.46383 6 6.87605 6 5.76515 6.92196M18.2348 6.92196C18.2348 6.92196 18.2348 6.92196 18.2348 6.92196ZM5.76515 6.92196C5.76515 6.92196 5.76515 6.92196 5.76515 6.92196Z" stroke="#1C274C" stroke-width="1.5"/>
<path d="M9 6V5C9 3.34315 10.3431 2 12 2C13.6569 2 15 3.34315 15 5V6" stroke="#1C274C" stroke-width="1.5" stroke-linecap="round"/>
</svg>
