<svg width="24" height="24" viewBox="0 0 24 24" fill="none" xmlns="http://www.w3.org/2000/svg">
<path d="M8.79623 6.64075C7.73459 5.57912 7.73459 3.85786 8.79623 2.79623C9.85786 1.73459 11.5791 1.73459 12.6408 2.79623L15.2038 5.35925C16.2654 6.42088 16.2654 8.14214 15.2038 9.20377C14.1421 10.2654 12.4209 10.2654 11.3592 9.20377L8.79623 6.64075Z" stroke="#1C274C" stroke-width="1.5"/>
<path d="M14 4C14 4 13.7749 5.16765 12.4712 6.47139C11.1674 7.77513 10 8 10 8" stroke="#1C274C" stroke-width="1.5"/>
<path d="M5 20.3884H7.25993C8.27079 20.3884 9.29253 20.4937 10.2763 20.6964C12.0166 21.0549 13.8488 21.0983 15.6069 20.8138C16.4738 20.6734 17.326 20.4589 18.0975 20.0865C18.7939 19.7504 19.6469 19.2766 20.2199 18.7459C20.7921 18.216 21.388 17.3487 21.8109 16.6707C22.1736 16.0894 21.9982 15.3762 21.4245 14.943C20.7873 14.4619 19.8417 14.462 19.2046 14.9433L17.3974 16.3084C16.697 16.8375 15.932 17.3245 15.0206 17.4699C14.911 17.4874 14.7962 17.5033 14.6764 17.5172M14.6764 17.5172C14.6403 17.5214 14.6038 17.5254 14.5668 17.5292M14.6764 17.5172C14.8222 17.486 14.9669 17.396 15.1028 17.2775C15.746 16.7161 15.7866 15.77 15.2285 15.1431C15.0991 14.9977 14.9475 14.8764 14.7791 14.7759C11.9817 13.1074 7.62942 14.3782 5 16.2429M14.6764 17.5172C14.6399 17.525 14.6033 17.5292 14.5668 17.5292M14.5668 17.5292C14.0434 17.5829 13.4312 17.5968 12.7518 17.5326" stroke="#1C274C" stroke-width="1.5" stroke-linecap="round"/>
<rect x="2" y="14" width="3" height="8" rx="1.5" stroke="#1C274C" stroke-width="1.5"/>
</svg>
