<svg width="24" height="24" viewBox="0 0 24 24" fill="none" xmlns="http://www.w3.org/2000/svg">
<path d="M2 12C2 7.28595 2 4.92893 3.46447 3.46447C4.92893 2 7.28595 2 12 2C16.714 2 19.0711 2 20.5355 3.46447C22 4.92893 22 7.28595 22 12C22 16.714 22 19.0711 20.5355 20.5355C19.0711 22 16.714 22 12 22C7.28595 22 4.92893 22 3.46447 20.5355C2 19.0711 2 16.714 2 12Z" stroke="#1C274C" stroke-width="1.5"/>
<path d="M2 13H5.16026C6.06543 13 6.51802 13 6.91584 13.183C7.31367 13.3659 7.60821 13.7096 8.19729 14.3968L8.80271 15.1032C9.39179 15.7904 9.68633 16.1341 10.0842 16.317C10.482 16.5 10.9346 16.5 11.8397 16.5H12.1603C13.0654 16.5 13.518 16.5 13.9158 16.317C14.3137 16.1341 14.6082 15.7904 15.1973 15.1032L15.8027 14.3968C16.3918 13.7096 16.6863 13.3659 17.0842 13.183C17.482 13 17.9346 13 18.8397 13H22" stroke="#1C274C" stroke-width="1.5" stroke-linecap="round"/>
</svg>
