<svg width="24" height="24" viewBox="0 0 24 24" fill="none" xmlns="http://www.w3.org/2000/svg">
<path d="M2 12.0261C2 17.1723 5.86713 21.413 10.8468 21.9863C11.5816 22.0709 12.2938 21.7576 12.8168 21.2333C13.4703 20.5781 13.4703 19.5159 12.8168 18.8607C12.2938 18.3364 11.8674 17.5541 12.2619 16.9268C13.8385 14.4192 22 20.178 22 12.0261C22 6.48884 17.5228 2 12 2C6.47715 2 2 6.48884 2 12.0261Z" stroke="#1C274C" stroke-width="1.5"/>
<circle cx="17.5" cy="11.5" r="0.75" stroke="#1C274C" stroke-width="1.5"/>
<circle cx="6.5" cy="11.5" r="0.75" stroke="#1C274C" stroke-width="1.5"/>
<path d="M10.335 7C10.335 7.41421 9.9992 7.75 9.58499 7.75C9.17078 7.75 8.83499 7.41421 8.83499 7C8.83499 6.58579 9.17078 6.25 9.58499 6.25C9.9992 6.25 10.335 6.58579 10.335 7Z" stroke="#1C274C" stroke-width="1.5"/>
<path d="M15.25 7C15.25 7.41421 14.9142 7.75 14.5 7.75C14.0858 7.75 13.75 7.41421 13.75 7C13.75 6.58579 14.0858 6.25 14.5 6.25C14.9142 6.25 15.25 6.58579 15.25 7Z" stroke="#1C274C" stroke-width="1.5"/>
</svg>
