<svg width="24" height="24" viewBox="0 0 24 24" fill="none" xmlns="http://www.w3.org/2000/svg">
<path d="M19.1414 2.07816C20.9097 3.88191 22 6.3527 22 9.07816C22 11.836 20.8836 14.333 19.0782 16.1421M5 16.2196C3.14864 14.4047 2 11.8756 2 9.07816C2 6.31313 3.12222 3.8102 4.93603 2" stroke="#1C274C" stroke-width="1.5" stroke-linecap="round" stroke-linejoin="round"/>
<path d="M16.2849 5.1221C17.3458 6.13689 18 7.52697 18 9.06033C18 10.6119 17.3302 12.0167 16.2469 13.0345M7.8 13.0781C6.68918 12.057 6 10.6342 6 9.06033C6 7.50471 6.67333 6.09655 7.76162 5.07812" stroke="#1C274C" stroke-width="1.5" stroke-linecap="round" stroke-linejoin="round"/>
<circle cx="12" cy="9.07812" r="2" stroke="#1C274C" stroke-width="1.5"/>
<path d="M12.5 11L16 22L10.5 15.5M11.5 11L8 22L13.5 15.5" stroke="#1C274C" stroke-width="1.5" stroke-linecap="round" stroke-linejoin="round"/>
</svg>
