<svg width="24" height="24" viewBox="0 0 24 24" fill="none" xmlns="http://www.w3.org/2000/svg">
<path d="M14 11C14 10.4477 14.4477 10 15 10C15.5523 10 16 10.4477 16 11V13C16 13.5523 15.5523 14 15 14C14.4477 14 14 13.5523 14 13V11Z" stroke="#1C274C" stroke-width="1.5"/>
<path d="M14.0079 19.0029L13.2579 19.0007V19.0007L14.0079 19.0029ZM14.0137 17L14.7637 17.0022V17H14.0137ZM3.14958 18.8284L2.61991 19.3594H2.61991L3.14958 18.8284ZM3.14958 5.17157L2.61991 4.64058L2.61991 4.64058L3.14958 5.17157ZM2.95308 10.2537L2.58741 10.9085H2.58741L2.95308 10.2537ZM2.01058 8.98947L1.26124 8.95797L2.01058 8.98947ZM2.95308 13.7463L2.58741 13.0915L2.58741 13.0915L2.95308 13.7463ZM2.01058 15.0105L2.75992 14.979L2.01058 15.0105ZM21.0469 10.2537L21.4126 10.9085L21.0469 10.2537ZM21.9894 8.98947L22.7388 8.95797V8.95797L21.9894 8.98947ZM20.8504 5.17157L21.3801 4.64058L21.3801 4.64058L20.8504 5.17157ZM21.0469 13.7463L20.6812 14.4012V14.4012L21.0469 13.7463ZM21.9894 15.0105L22.7388 15.042V15.042L21.9894 15.0105ZM20.8504 18.8284L21.3801 19.3594L21.3801 19.3594L20.8504 18.8284ZM21.9437 14.332L22.5981 13.9656L22.5981 13.9656L21.9437 14.332ZM21.9437 9.66803L22.5981 10.0344L22.5981 10.0344L21.9437 9.66803ZM2.05634 14.332L1.4019 13.9656L1.4019 13.9656L2.05634 14.332ZM2.05634 9.66802L2.71079 9.30168L2.71078 9.30168L2.05634 9.66802ZM14.0137 7H14.7637L14.7637 6.99782L14.0137 7ZM14.0064 4.49855L13.2564 4.50073V4.50073L14.0064 4.49855ZM16.5278 4.0189L16.5471 3.26915L16.5278 4.0189ZM17.0336 19.9642L17.0653 20.7135H17.0653L17.0336 19.9642ZM13.8595 19.8541L13.3299 19.323L13.3299 19.323L13.8595 19.8541ZM14.7579 19.0051L14.7637 17.0022L13.2637 16.9978L13.2579 19.0007L14.7579 19.0051ZM15.0162 16.75C15.1574 16.75 15.2687 16.8637 15.2687 17H16.7687C16.7687 16.0317 15.9823 15.25 15.0162 15.25V16.75ZM15.0162 15.25C14.0501 15.25 13.2637 16.0317 13.2637 17H14.7637C14.7637 16.8637 14.875 16.75 15.0162 16.75V15.25ZM9.99502 4.75H13.5052V3.25H9.99502V4.75ZM13.0079 19.25H9.99502V20.75H13.0079V19.25ZM9.99502 19.25C8.08355 19.25 6.72521 19.2484 5.69469 19.1102C4.68554 18.9749 4.10384 18.721 3.67925 18.2974L2.61991 19.3594C3.3698 20.1074 4.32051 20.4393 5.4953 20.5969C6.64871 20.7516 8.12585 20.75 9.99502 20.75V19.25ZM9.99502 3.25C8.12585 3.25 6.64871 3.24841 5.4953 3.4031C4.32051 3.56066 3.3698 3.89255 2.61991 4.64058L3.67925 5.70256C4.10384 5.27902 4.68554 5.02513 5.69469 4.88979C6.72521 4.75159 8.08355 4.75 9.99502 4.75V3.25ZM2.58741 10.9085C2.97311 11.1239 3.23007 11.533 3.23007 12H4.73007C4.73007 10.9664 4.1586 10.0678 3.31876 9.59884L2.58741 10.9085ZM2.75992 9.02097C2.83795 7.16494 3.09146 6.28889 3.67925 5.70256L2.61991 4.64058C1.59036 5.66758 1.34012 7.08185 1.26124 8.95797L2.75992 9.02097ZM3.23007 12C3.23007 12.467 2.97311 12.8761 2.58741 13.0915L3.31876 14.4012C4.1586 13.9322 4.73007 13.0336 4.73007 12H3.23007ZM1.26124 15.042C1.34012 16.9182 1.59036 18.3324 2.61991 19.3594L3.67925 18.2974C3.09146 17.7111 2.83795 16.8351 2.75992 14.979L1.26124 15.042ZM20.7699 12C20.7699 11.533 21.0269 11.1239 21.4126 10.9085L20.6812 9.59884C19.8414 10.0678 19.2699 10.9664 19.2699 12H20.7699ZM22.7388 8.95797C22.6599 7.08185 22.4096 5.66758 21.3801 4.64058L20.3207 5.70256C20.9085 6.28889 21.1621 7.16494 21.2401 9.02097L22.7388 8.95797ZM21.4126 13.0915C21.0269 12.8761 20.7699 12.467 20.7699 12H19.2699C19.2699 13.0336 19.8414 13.9322 20.6812 14.4012L21.4126 13.0915ZM21.2401 14.979C21.1621 16.8351 20.9085 17.7111 20.3207 18.2974L21.3801 19.3594C22.4096 18.3324 22.6599 16.9182 22.7388 15.042L21.2401 14.979ZM20.6812 14.4012C20.9652 14.5597 21.1507 14.6636 21.2761 14.7427C21.3379 14.7817 21.3653 14.8024 21.3735 14.8093C21.388 14.8213 21.3375 14.7846 21.2892 14.6983L22.5981 13.9656C22.5153 13.8177 22.4043 13.7154 22.3304 13.6542C22.2503 13.5878 22.1613 13.5276 22.0764 13.4741C21.9087 13.3683 21.6804 13.2411 21.4126 13.0915L20.6812 14.4012ZM22.7388 15.042C22.746 14.8706 22.7541 14.6937 22.7476 14.5458C22.741 14.3959 22.7178 14.1795 22.5981 13.9656L21.2892 14.6983C21.2386 14.6079 21.2461 14.5457 21.249 14.6117C21.2503 14.6404 21.2505 14.6822 21.2488 14.7464C21.2472 14.8104 21.244 14.8847 21.2401 14.979L22.7388 15.042ZM21.4126 10.9085C21.6804 10.7589 21.9087 10.6317 22.0764 10.5259C22.1613 10.4724 22.2503 10.4122 22.3304 10.3458C22.4043 10.2846 22.5153 10.1823 22.5981 10.0344L21.2892 9.30168C21.3375 9.21543 21.388 9.17871 21.3735 9.19072C21.3653 9.19756 21.3379 9.21832 21.2761 9.25725C21.1507 9.33637 20.9652 9.44028 20.6812 9.59884L21.4126 10.9085ZM21.2401 9.02097C21.244 9.11528 21.2472 9.18961 21.2488 9.25357C21.2505 9.31779 21.2503 9.35964 21.249 9.38827C21.2461 9.45428 21.2386 9.39206 21.2892 9.30169L22.5981 10.0344C22.7178 9.82054 22.741 9.60408 22.7476 9.45419C22.7541 9.30634 22.746 9.12945 22.7388 8.95797L21.2401 9.02097ZM2.58741 13.0915C2.31959 13.2411 2.0913 13.3683 1.92358 13.4741C1.83872 13.5276 1.74971 13.5878 1.66957 13.6542C1.59566 13.7154 1.48474 13.8177 1.4019 13.9656L2.71078 14.6983C2.6625 14.7846 2.61198 14.8213 2.62648 14.8093C2.63474 14.8024 2.66215 14.7817 2.72387 14.7427C2.84929 14.6636 3.03482 14.5597 3.31876 14.4012L2.58741 13.0915ZM2.75992 14.979C2.75595 14.8847 2.75285 14.8104 2.7512 14.7464C2.74954 14.6822 2.74973 14.6404 2.75099 14.6117C2.75389 14.5457 2.76137 14.6079 2.71078 14.6983L1.4019 13.9656C1.28221 14.1795 1.25903 14.3959 1.25244 14.5458C1.24593 14.6937 1.25403 14.8706 1.26124 15.042L2.75992 14.979ZM3.31876 9.59884C3.03482 9.44028 2.84929 9.33637 2.72386 9.25725C2.66214 9.21832 2.63474 9.19756 2.62648 9.19072C2.61198 9.17871 2.66251 9.21543 2.71079 9.30168L1.4019 10.0344C1.48473 10.1823 1.59565 10.2846 1.66956 10.3458C1.74971 10.4122 1.83872 10.4724 1.92357 10.5259C2.0913 10.6317 2.31959 10.7589 2.58741 10.9085L3.31876 9.59884ZM1.26124 8.95797C1.25403 9.12945 1.24593 9.30634 1.25244 9.45419C1.25903 9.60408 1.28221 9.82054 1.4019 10.0344L2.71078 9.30168C2.76137 9.39206 2.75389 9.45428 2.75099 9.38827C2.74973 9.35964 2.74954 9.31779 2.7512 9.25357C2.75285 9.18961 2.75595 9.11528 2.75992 9.02097L1.26124 8.95797ZM14.7637 6.99782L14.7564 4.49637L13.2564 4.50073L13.2637 7.00218L14.7637 6.99782ZM15.0162 7.25C14.875 7.25 14.7637 7.13631 14.7637 7H13.2637C13.2637 7.96826 14.0501 8.75 15.0162 8.75V7.25ZM15.2687 7C15.2687 7.13631 15.1574 7.25 15.0162 7.25V8.75C15.9823 8.75 16.7687 7.96826 16.7687 7H15.2687ZM15.2687 4.51618V7H16.7687V4.51618H15.2687ZM16.5084 4.76865C18.6966 4.82509 19.6778 5.06124 20.3208 5.70256L21.3801 4.64058C20.2676 3.53084 18.6939 3.32452 16.5471 3.26915L16.5084 4.76865ZM16.7687 4.51618C16.7687 4.656 16.6534 4.77239 16.5084 4.76865L16.5471 3.26915C15.8429 3.25099 15.2687 3.81835 15.2687 4.51618H16.7687ZM13.5052 4.75C13.3698 4.75 13.2568 4.64027 13.2564 4.50073L14.7564 4.49637C14.7544 3.80569 14.1931 3.25 13.5052 3.25V4.75ZM17.0653 20.7135C18.9399 20.6343 20.353 20.384 21.3801 19.3594L20.3208 18.2974C19.7336 18.8831 18.8563 19.1365 17.002 19.2148L17.0653 20.7135ZM15.2687 17V18.9765H16.7687V17H15.2687ZM13.2579 19.0007C13.2575 19.121 13.2572 19.2136 13.255 19.2926C13.2528 19.3721 13.249 19.4192 13.245 19.4481C13.2411 19.4764 13.2396 19.4669 13.2513 19.4387C13.2654 19.4045 13.2911 19.3617 13.3299 19.323L14.389 20.3852C14.6246 20.1502 14.701 19.8709 14.7311 19.6521C14.7582 19.4548 14.7573 19.219 14.7579 19.0051L13.2579 19.0007ZM13.0079 20.75C13.2218 20.75 13.4576 20.7516 13.6549 20.7251C13.8739 20.6957 14.1534 20.6201 14.389 20.3852L13.3299 19.323C13.3687 19.2843 13.4116 19.2587 13.4458 19.2447C13.4741 19.2331 13.4836 19.2346 13.4553 19.2384C13.4264 19.2423 13.3792 19.246 13.2998 19.248C13.2208 19.25 13.1282 19.25 13.0079 19.25V20.75ZM17.002 19.2148C16.8812 19.2199 16.7889 19.2238 16.7101 19.225C16.631 19.2262 16.5849 19.2244 16.5575 19.2217C16.5309 19.2191 16.5426 19.2175 16.5734 19.2292C16.6103 19.2433 16.6536 19.2685 16.6917 19.305L15.6536 20.3878C15.8978 20.6219 16.183 20.6921 16.4108 20.7145C16.6127 20.7344 16.8518 20.7225 17.0653 20.7135L17.002 19.2148ZM15.2687 18.9765C15.2687 19.1953 15.267 19.4374 15.295 19.6397C15.3263 19.8655 15.407 20.1514 15.6536 20.3878L16.6917 19.305C16.7313 19.343 16.7584 19.3863 16.7737 19.4221C16.7863 19.4516 16.7848 19.4622 16.7808 19.4337C16.7768 19.4046 16.7729 19.3566 16.7708 19.2753C16.7687 19.1945 16.7687 19.0997 16.7687 18.9765H15.2687Z" fill="#1C274C"/>
</svg>
