<svg width="24" height="24" viewBox="0 0 24 24" fill="none" xmlns="http://www.w3.org/2000/svg">
<path d="M20.5 6H3.49991" stroke="#1C274C" stroke-width="1.5" stroke-linecap="round"/>
<path d="M18.8333 8.5L18.3734 15.3991C18.1964 18.054 18.1079 19.3815 17.2429 20.1907C16.3779 21 15.0475 21 12.3867 21H11.6133C8.95252 21 7.62212 21 6.75711 20.1907C5.8921 19.3815 5.80361 18.054 5.62661 15.3991L5.16667 8.5" stroke="#1C274C" stroke-width="1.5" stroke-linecap="round"/>
<path d="M6.5 6C6.55588 6 6.58382 6 6.60915 5.99936C7.43259 5.97849 8.15902 5.45491 8.43922 4.68032C8.44784 4.65649 8.45667 4.62999 8.47434 4.57697L8.57143 4.28571C8.65431 4.03708 8.69575 3.91276 8.75071 3.8072C8.97001 3.38607 9.37574 3.09364 9.84461 3.01877C9.96213 3 10.0932 3 10.3553 3H13.6447C13.9068 3 14.0379 3 14.1554 3.01877C14.6243 3.09364 15.03 3.38607 15.2493 3.8072C15.3043 3.91276 15.3457 4.03708 15.4286 4.28571L15.5257 4.57697C15.5433 4.62992 15.5522 4.65651 15.5608 4.68032C15.841 5.45491 16.5674 5.97849 17.3909 5.99936C17.4162 6 17.4441 6 17.5 6" stroke="#1C274C" stroke-width="1.5"/>
</svg>
