<svg width="24" height="24" viewBox="0 0 24 24" fill="none" xmlns="http://www.w3.org/2000/svg">
<circle cx="10" cy="6" r="4" stroke="#1C274C" stroke-width="1.5"/>
<path d="M18 17.5C18 19.9853 18 22 10 22C2 22 2 19.9853 2 17.5C2 15.0147 5.58172 13 10 13C14.4183 13 18 15.0147 18 17.5Z" stroke="#1C274C" stroke-width="1.5"/>
<path d="M18.0885 12.5385L18.5435 11.9423L18.0885 12.5385ZM19 8.64354L18.4681 9.17232C18.6089 9.31392 18.8003 9.39354 19 9.39354C19.1997 9.39354 19.3911 9.31392 19.5319 9.17232L19 8.64354ZM19.9115 12.5385L19.4565 11.9423L19.9115 12.5385ZM18.5435 11.9423C18.0571 11.571 17.619 11.274 17.2659 10.8891C16.9387 10.5324 16.75 10.1638 16.75 9.69973H15.25C15.25 10.6481 15.6642 11.362 16.1606 11.9031C16.6311 12.4161 17.2372 12.8322 17.6335 13.1347L18.5435 11.9423ZM16.75 9.69973C16.75 9.28775 16.9898 8.95469 17.2973 8.81862C17.5635 8.7008 17.9874 8.68874 18.4681 9.17232L19.5319 8.11476C18.6627 7.24047 17.5865 7.0503 16.6903 7.44694C15.8352 7.82533 15.25 8.69929 15.25 9.69973H16.75ZM17.6335 13.1347C17.7825 13.2483 17.9756 13.3959 18.1793 13.5111C18.3832 13.6265 18.6656 13.75 19 13.75V12.25C19.0344 12.25 19.0168 12.2615 18.9179 12.2056C18.8187 12.1495 18.7061 12.0663 18.5435 11.9423L17.6335 13.1347ZM20.3665 13.1347C20.7628 12.8322 21.3689 12.4161 21.8394 11.9031C22.3358 11.362 22.75 10.6481 22.75 9.69973H21.25C21.25 10.1638 21.0613 10.5324 20.7341 10.8891C20.381 11.274 19.9429 11.571 19.4565 11.9423L20.3665 13.1347ZM22.75 9.69973C22.75 8.69929 22.1648 7.82533 21.3097 7.44694C20.4135 7.0503 19.3373 7.24047 18.4681 8.11476L19.5319 9.17232C20.0126 8.68874 20.4365 8.7008 20.7027 8.81862C21.0102 8.95469 21.25 9.28775 21.25 9.69973H22.75ZM19.4565 11.9423C19.2939 12.0663 19.1813 12.1495 19.0821 12.2056C18.9832 12.2615 18.9656 12.25 19 12.25V13.75C19.3344 13.75 19.6168 13.6265 19.8207 13.5111C20.0244 13.3959 20.2175 13.2483 20.3665 13.1347L19.4565 11.9423Z" fill="#1C274C"/>
</svg>
